<?xml version="1.0" standalone="no"?>
<!DOCTYPE svg PUBLIC "-//W3C//DTD SVG 20010904//EN"
 "http://www.w3.org/TR/2001/REC-SVG-20010904/DTD/svg10.dtd">
<svg version="1.0" xmlns="http://www.w3.org/2000/svg"
 width="616.000000pt" height="616.000000pt" viewBox="0 0 616.000000 616.000000"
 preserveAspectRatio="xMidYMid meet">
<metadata>
Created by potrace 1.14, written by Peter Selinger 2001-2017
</metadata>
<g transform="translate(0.000000,616.000000) scale(0.100000,-0.100000)"
fill="#000000" stroke="none">
<path d="M10 3075 l0 -3075 3073 2 3072 3 3 3073 2 3072 -3075 0 -3075 0 0
-3075z m2350 1722 c0 -860 3 -1126 12 -1135 16 -16 190 -16 206 0 9 9 12 275
12 1135 l0 1123 1670 0 1670 0 0 -2845 0 -2845 -1670 0 -1670 0 0 100 0 100
-115 0 -115 0 0 -100 0 -100 -1060 0 -1060 0 0 2845 0 2845 1060 0 1060 0 0
-1123z"/>
<path d="M2367 3094 c-10 -10 -8 -1776 1 -1792 6 -9 36 -12 113 -10 l104 3 0
900 0 900 -106 3 c-58 1 -108 -1 -112 -4z"/>
<path d="M1758 3083 c-17 -4 -18 -24 -18 -244 l0 -239 -252 0 c-301 0 -370 -8
-458 -52 -78 -40 -129 -102 -156 -191 -17 -56 -19 -99 -19 -442 0 -439 1 -446
86 -539 85 -94 200 -122 454 -114 126 4 147 8 202 32 33 15 78 46 99 67 l39
40 5 -53 5 -53 104 -3 c77 -2 107 1 113 10 4 7 8 407 8 889 0 667 -3 878 -12
887 -12 12 -161 15 -200 5z m-18 -1050 c0 -397 -1 -397 -69 -475 -60 -69 -92
-77 -298 -79 -204 -2 -226 4 -270 71 -23 33 -23 37 -23 377 0 368 1 372 52
420 12 12 34 26 48 31 14 6 145 11 293 11 l267 2 0 -358z"/>
<path d="M3264 2589 c-92 -11 -157 -44 -213 -105 -85 -92 -85 -94 -89 -532 -2
-253 1 -402 8 -437 22 -104 99 -188 213 -229 42 -15 92 -19 263 -23 313 -8
412 10 504 93 77 70 114 181 108 324 l-3 75 -106 3 -106 3 -5 -90 c-6 -103
-24 -144 -78 -176 -33 -19 -49 -20 -250 -17 -249 3 -270 8 -307 82 -22 43 -23
52 -23 370 0 318 1 327 23 370 36 73 64 83 225 82 75 -1 173 -2 218 -2 67 0
87 -4 114 -22 57 -39 72 -68 79 -154 l6 -79 85 -3 c133 -5 130 -7 130 91 0
153 -44 255 -137 316 -85 57 -125 64 -373 66 -124 1 -253 -1 -286 -6z"/>
<path d="M912 957 c-44 -46 -23 -89 52 -111 61 -18 74 -30 56 -51 -16 -19 -57
-19 -92 -1 -25 13 -28 13 -33 -6 -9 -25 -5 -28 45 -39 76 -17 130 11 130 67 0
37 -13 48 -84 68 -30 9 -41 17 -41 31 0 17 7 20 54 20 37 0 56 5 59 14 7 20
-18 31 -74 31 -40 0 -55 -5 -72 -23z"/>
<path d="M1133 868 c2 -109 3 -113 25 -116 18 -3 22 1 22 26 0 28 2 30 52 34
75 8 115 61 92 123 -11 28 -60 45 -128 45 l-66 0 3 -112z m135 60 c18 -18 14
-56 -7 -68 -11 -5 -33 -10 -50 -10 -30 0 -31 1 -31 45 l0 45 38 0 c21 0 43 -5
50 -12z"/>
<path d="M1414 946 c-27 -27 -34 -42 -34 -75 0 -73 32 -113 101 -126 64 -12
134 32 145 91 15 82 -40 144 -129 144 -42 0 -54 -5 -83 -34z m143 -28 c42 -39
27 -108 -27 -127 -56 -19 -104 16 -104 76 0 66 81 98 131 51z"/>
<path d="M1690 865 l0 -115 25 0 c21 0 25 5 25 29 0 49 51 47 83 -3 11 -17 27
-26 43 -26 l25 0 -20 29 c-26 36 -26 37 -1 68 28 36 25 70 -9 104 -27 27 -35
29 -100 29 l-71 0 0 -115z m138 63 c18 -18 14 -56 -7 -68 -11 -5 -33 -10 -50
-10 -30 0 -31 1 -31 45 l0 45 38 0 c21 0 43 -5 50 -12z"/>
<path d="M1920 960 c0 -17 7 -20 40 -20 l40 0 0 -95 c0 -88 1 -95 20 -95 19 0
20 7 20 95 l0 95 40 0 c33 0 40 3 40 20 0 19 -7 20 -100 20 -93 0 -100 -1
-100 -20z"/>
<path d="M2292 964 c-15 -10 -22 -25 -22 -49 0 -40 20 -57 88 -75 31 -8 42
-16 42 -30 0 -26 -39 -35 -86 -20 -30 10 -38 10 -45 -1 -6 -9 -3 -18 8 -26 47
-36 145 -21 166 24 18 41 -7 73 -76 96 -43 14 -57 23 -55 36 3 13 15 16 61 16
36 0 58 4 61 12 13 32 -101 46 -142 17z"/>
<path d="M2496 933 c15 -27 36 -61 46 -78 10 -16 18 -47 18 -67 0 -34 3 -38
25 -38 23 0 25 4 23 39 -1 30 9 56 40 109 23 39 42 73 42 76 0 3 -9 6 -19 6
-13 0 -31 -19 -53 -54 l-34 -54 -33 54 c-25 43 -37 54 -58 54 l-25 0 28 -47z"/>
<path d="M2741 954 c-12 -15 -21 -35 -21 -45 0 -26 36 -56 74 -63 18 -4 41
-13 52 -21 19 -15 19 -15 0 -30 -25 -19 -53 -19 -88 -1 -23 12 -27 12 -33 -2
-10 -28 21 -46 80 -46 63 -1 98 23 98 69 0 35 -11 44 -75 65 -39 13 -53 22
-53 36 0 16 8 19 54 19 37 0 56 5 59 14 7 20 -18 31 -75 31 -44 0 -55 -4 -72
-26z"/>
<path d="M2930 960 c0 -17 7 -20 40 -20 l40 0 0 -95 c0 -88 1 -95 20 -95 19 0
20 7 20 95 l0 95 40 0 c33 0 40 3 40 20 0 19 -7 20 -100 20 -93 0 -100 -1
-100 -20z"/>
<path d="M3180 865 l0 -116 88 3 c69 2 87 6 87 18 0 11 -15 16 -61 18 -48 2
-63 7 -66 20 -9 34 2 42 59 42 46 0 54 3 51 17 -2 13 -15 18 -48 21 -61 4 -69
8 -66 29 2 15 14 19 64 21 54 3 62 6 62 22 0 18 -7 20 -85 20 l-85 0 0 -115z"/>
<path d="M3420 865 l0 -115 26 0 c23 0 25 3 24 38 -1 20 -1 51 -1 67 1 29 2
28 34 -25 18 -30 39 -55 46 -55 6 0 27 25 46 55 l35 55 0 -67 c0 -66 1 -68 25
-68 l26 0 -2 116 c-1 111 -2 115 -22 112 -14 -2 -34 -25 -59 -68 -21 -36 -42
-66 -47 -68 -4 -1 -27 29 -50 68 -29 49 -48 70 -61 70 -19 0 -20 -8 -20 -115z"/>
<path d="M3761 954 c-40 -51 -23 -82 59 -109 58 -19 70 -33 45 -52 -24 -17
-53 -17 -87 1 -25 13 -28 13 -34 -6 -8 -25 6 -34 61 -42 69 -11 118 18 118 71
0 32 -23 50 -81 65 -48 12 -64 34 -38 53 11 9 28 10 53 4 40 -9 53 -5 53 16 0
18 -23 25 -80 25 -41 0 -52 -4 -69 -26z"/>
</g>
</svg>
